<svg xmlns="http://www.w3.org/2000/svg" >
  <defs>
    <symbol id="brand" viewBox="0 0 150 170">
      <path d="M0 0 C0.70342529 0.00467285 1.40685059 0.0093457 2.1315918 0.01416016 C9.43601234 0.22124641 14.25416399 2.48194266 20.1875 6.4375 C20.1875 7.0975 20.1875 7.7575 20.1875 8.4375 C20.8475 8.4375 21.5075 8.4375 22.1875 8.4375 C23.87890625 10.73828125 23.87890625 10.73828125 25.75 13.75 C26.68005859 15.22919922 26.68005859 15.22919922 27.62890625 16.73828125 C29.1875 19.4375 29.1875 19.4375 30.1875 22.4375 C30.47882812 21.86902344 30.77015625 21.30054687 31.0703125 20.71484375 C33.842573 15.49288136 36.776425 10.46050389 41.1875 6.4375 C41.8475 6.4375 42.5075 6.4375 43.1875 6.4375 C43.1875 5.7775 43.1875 5.1175 43.1875 4.4375 C51.00306164 -0.42551613 59.30092818 -0.51824299 68.1875 0.4375 C71.33603377 1.45343857 73.41534597 2.58939731 76.1875 4.4375 C75.8575 5.4275 75.5275 6.4175 75.1875 7.4375 C73.10546875 8.17578125 73.10546875 8.17578125 70.375 8.75 C59.98861649 11.36682909 50.87172132 15.84873343 44.1875 24.4375 C43.6925 25.9225 43.6925 25.9225 43.1875 27.4375 C44.156875 26.81875 45.12625 26.2 46.125 25.5625 C52.74045165 21.79369724 60.90372908 20.14486318 68.375 21.97265625 C77.89002753 24.91395699 83.88917231 28.90289648 89.1875 37.4375 C90.16991978 39.81965062 90.70023993 41.89291963 91.1875 44.4375 C87.25348895 44.02339357 83.9383743 43.00518547 80.3125 41.5 C69.25926944 36.97672857 58.78410786 35.86931297 47.1875 39.4375 C48.16589844 39.6334375 49.14429687 39.829375 50.15234375 40.03125 C60.15287647 42.2294779 66.48831937 45.23858087 72.83984375 53.6171875 C77.37644669 61.08184719 76.65718863 69.02485469 76.1875 77.4375 C73.33570529 77.07787102 72.29354616 76.54764144 70.265625 74.44140625 C69.66234375 73.63574219 69.0590625 72.83007812 68.4375 72 C67.82390625 71.19691406 67.2103125 70.39382812 66.578125 69.56640625 C65.1875 67.4375 65.1875 67.4375 65.1875 65.4375 C64.5275 65.4375 63.8675 65.4375 63.1875 65.4375 C63.1875 64.7775 63.1875 64.1175 63.1875 63.4375 C62.61386719 63.17710938 62.04023437 62.91671875 61.44921875 62.6484375 C59.01976625 61.34769437 57.1143143 59.82635419 55 58.0625 C49.22955873 53.50888984 43.69637176 50.10931505 36.1875 50.4375 C36.09539052 57.05914818 36.09481597 63.52565295 36.96484375 70.09375 C37.41786441 74.8623885 37.24249514 79.65292312 37.1875 84.4375 C32.8975 84.4375 28.6075 84.4375 24.1875 84.4375 C24.8475 72.8875 25.5075 61.3375 26.1875 49.4375 C20.46858389 50.86722903 16.83884184 51.87965807 11.875 54.5 C8.9655917 56.02362099 6.30444532 57.39851823 3.1875 58.4375 C3.1875 59.0975 3.1875 59.7575 3.1875 60.4375 C1.8125 62.0625 1.8125 62.0625 0.1875 63.4375 C-0.4725 63.4375 -1.1325 63.4375 -1.8125 63.4375 C-1.8125 64.0975 -1.8125 64.7575 -1.8125 65.4375 C-2.4725 65.4375 -3.1325 65.4375 -3.8125 65.4375 C-4.09351562 66.00984375 -4.37453125 66.5821875 -4.6640625 67.171875 C-5.78448782 69.38223787 -6.9417948 71.54520444 -8.1875 73.6875 C-8.58710938 74.39390625 -8.98671875 75.1003125 -9.3984375 75.828125 C-10.09839844 76.62476562 -10.09839844 76.62476562 -10.8125 77.4375 C-12.1325 77.4375 -13.4525 77.4375 -14.8125 77.4375 C-15.6310144 66.34208261 -14.85962825 57.45997151 -7.23828125 48.609375 C-5.8125 47.4375 -5.8125 47.4375 -3.8125 47.4375 C-3.8125 46.7775 -3.8125 46.1175 -3.8125 45.4375 C2.41279789 42.33988801 8.32273882 40.52668967 15.1875 39.4375 C1.56063261 35.11509238 -12.433703 37.11412392 -25.08203125 43.6015625 C-26.8125 44.4375 -26.8125 44.4375 -29.8125 44.4375 C-28.28912538 37.27439807 -24.44645595 31.17313449 -18.7109375 26.65234375 C-10.98028766 21.70536412 -2.28935774 20.49582428 6.625 22.125 C11.44222302 23.25895112 15.19197667 25.58511005 19.1875 28.4375 C12.01631304 16.21388587 3.45568646 12.16685588 -9.8125 8.4375 C-11.47409038 8.0797203 -13.13907777 7.73506839 -14.8125 7.4375 C-14.6875 5.625 -14.6875 5.625 -13.8125 3.4375 C-9.26359077 0.58491157 -5.26831907 -0.07648875 0 0 Z " fill="#428D8C" transform="translate(32.8125,11.5625)"/>
<path d="M0 0 C-3.54503124 1.18167708 -4.47280284 0.70722373 -7.9375 -0.4375 C-16.82715796 -3.00091989 -25.19959922 -2.70781562 -34 0 C-33.02160156 0.1959375 -32.04320312 0.391875 -31.03515625 0.59375 C-21.03462353 2.7919779 -14.69918063 5.80108087 -8.34765625 14.1796875 C-3.81105331 21.64434719 -4.53031137 29.58735469 -5 38 C-7.85179471 37.64037102 -8.89395384 37.11014144 -10.921875 35.00390625 C-11.52515625 34.19824219 -12.1284375 33.39257812 -12.75 32.5625 C-13.36359375 31.75941406 -13.9771875 30.95632812 -14.609375 30.12890625 C-16 28 -16 28 -16 26 C-16.66 26 -17.32 26 -18 26 C-18 25.34 -18 24.68 -18 24 C-18.57363281 23.73960938 -19.14726563 23.47921875 -19.73828125 23.2109375 C-22.16773375 21.91019437 -24.0731857 20.38885419 -26.1875 18.625 C-31.95794127 14.07138984 -37.49112824 10.67181505 -45 11 C-45.09210948 17.62164818 -45.09268403 24.08815295 -44.22265625 30.65625 C-43.76963559 35.4248885 -43.94500486 40.21542312 -44 45 C-48.29 45 -52.58 45 -57 45 C-56.34 33.45 -55.68 21.9 -55 10 C-62.09760981 11.74674621 -62.09760981 11.74674621 -68.375 14.625 C-72.80924855 17 -72.80924855 17 -75 17 C-74 14 -74 14 -71.6875 12.3125 C-69 11 -69 11 -65 11 C-65 10.34 -65 9.68 -65 9 C-59.84053135 7.2958322 -55.5574667 6.77774395 -50.0625 6.875 C-49.37865234 6.88402344 -48.69480469 6.89304687 -47.99023438 6.90234375 C-46.32666713 6.92561042 -44.66328369 6.96146833 -43 7 C-42.67 6.34 -42.34 5.68 -42 5 C-42.99 4.67 -43.98 4.34 -45 4 C-45 3.34 -45 2.68 -45 2 C-30.1476938 -4.79887586 -15.26216964 -7.53023348 0 0 Z " fill="#4D9392" transform="translate(114,51)"/>
<path d="M0 0 C3.61195234 0.25571344 4.82325129 0.81717646 7.38671875 3.46875 C8.14597656 4.4690625 8.90523437 5.469375 9.6875 6.5 C12.36708599 10.31511705 12.36708599 10.31511705 16 13 C16.66796875 15.14453125 16.66796875 15.14453125 17.1875 17.8125 C17.36667969 18.68519531 17.54585937 19.55789062 17.73046875 20.45703125 C17.99719949 22.97357778 17.78333107 24.61667355 17 27 C17.66 27.33 18.32 27.66 19 28 C19 28.66 19 29.32 19 30 C18.41621582 29.98428955 17.83243164 29.9685791 17.23095703 29.95239258 C14.52907405 29.88917972 11.82734741 29.85074077 9.125 29.8125 C7.74828125 29.77479492 7.74828125 29.77479492 6.34375 29.73632812 C-0.26303594 29.66653813 -5.79132998 30.75465195 -12 33 C-12 32.34 -12 31.68 -12 31 C-5.77470211 27.90238801 0.13523882 26.08918967 7 25 C-6.62686739 20.67759238 -20.621203 22.67662392 -33.26953125 29.1640625 C-35 30 -35 30 -38 30 C-36.47662538 22.83689807 -32.63395595 16.73563449 -26.8984375 12.21484375 C-19.16778766 7.26786412 -10.47685774 6.05832428 -1.5625 7.6875 C3.25472302 8.82145112 7.00447667 11.14761005 11 14 C7.71842138 8.82390176 4.54075781 4.14010271 0 0 Z " fill="#509594" transform="translate(41,26)"/>
<path d="M0 0 C0.78761719 -0.00257812 1.57523438 -0.00515625 2.38671875 -0.0078125 C4.3125 0.125 4.3125 0.125 5.3125 1.125 C5.35330783 3.12458364 5.35504356 5.12545254 5.3125 7.125 C4.19875 7.228125 3.085 7.33125 1.9375 7.4375 C0.74125 7.664375 -0.455 7.89125 -1.6875 8.125 C-3.69347923 11.13396885 -3.94814585 11.85505179 -4.06640625 15.25 C-4.10056641 16.03890625 -4.13472656 16.8278125 -4.16992188 17.640625 C-4.19634766 18.46046875 -4.22277344 19.2803125 -4.25 20.125 C-4.31004852 21.75014303 -4.37370449 23.3751578 -4.44140625 25 C-4.46533447 25.71929687 -4.4892627 26.43859375 -4.51391602 27.1796875 C-4.6875 29.125 -4.6875 29.125 -5.6875 32.125 C-5.3575 32.455 -5.0275 32.785 -4.6875 33.125 C-4.54268713 34.67315405 -4.46047155 36.22728354 -4.40625 37.78125 C-4.36886719 38.72097656 -4.33148438 39.66070312 -4.29296875 40.62890625 C-4.22265625 42.62630208 -4.15234375 44.62369792 -4.08203125 46.62109375 C-4.04464844 47.56082031 -4.00726563 48.50054687 -3.96875 49.46875 C-3.93845703 50.33693359 -3.90816406 51.20511719 -3.87695312 52.09960938 C-3.90528499 54.1199413 -3.90528499 54.1199413 -2.6875 55.125 C-1.5325 55.29 -0.3775 55.455 0.8125 55.625 C4.3125 56.125 4.3125 56.125 5.3125 57.125 C5.4375 60.125 5.4375 60.125 5.3125 63.125 C4.9825 63.455 4.6525 63.785 4.3125 64.125 C2.33043001 64.06077976 0.35047746 63.92382322 -1.625 63.75 C-3.24728516 63.61464844 -3.24728516 63.61464844 -4.90234375 63.4765625 C-7.6875 63.125 -7.6875 63.125 -9.6875 62.125 C-9.6875 61.465 -9.6875 60.805 -9.6875 60.125 C-10.3475 60.125 -11.0075 60.125 -11.6875 60.125 C-12.25073179 53.43662247 -12.6875 46.83883251 -12.6875 40.125 C-12.97270405 38.44942621 -13.28705696 36.77682755 -13.6875 35.125 C-15.6675 35.125 -17.6475 35.125 -19.6875 35.125 C-19.6875 32.815 -19.6875 30.505 -19.6875 28.125 C-17.7075 27.465 -15.7275 26.805 -13.6875 26.125 C-12.40953664 20.86649502 -12.38515098 15.57209875 -12.2578125 10.1875 C-12.02410953 4.6370545 -12.02410953 4.6370545 -10.3984375 2.1640625 C-7.04229957 0.12586002 -3.86255767 -0.01276879 0 0 Z " fill="#E89346" transform="translate(29.6875,94.875)"/>
<path d="M0 0 C4.84623566 0.05393267 8.23510929 0.67260929 11.75 4.1875 C12.16064453 6.43408203 12.16064453 6.43408203 12.3828125 9.1953125 C12.50849609 10.67451172 12.50849609 10.67451172 12.63671875 12.18359375 C12.71535156 13.21613281 12.79398438 14.24867187 12.875 15.3125 C12.96136719 16.35277344 13.04773438 17.39304687 13.13671875 18.46484375 C13.34922379 21.03851589 13.55329156 23.61258017 13.75 26.1875 C15.73 26.8475 17.71 27.5075 19.75 28.1875 C19.75 30.4975 19.75 32.8075 19.75 35.1875 C18.780625 35.455625 17.81125 35.72375 16.8125 36 C15.2965625 36.5878125 15.2965625 36.5878125 13.75 37.1875 C12.69013525 40.36709425 12.6817458 42.54334193 12.75 45.875 C12.79752527 50.76416188 12.49273885 55.35969745 11.75 60.1875 C11.09 60.1875 10.43 60.1875 9.75 60.1875 C9.75 60.8475 9.75 61.5075 9.75 62.1875 C4.2084498 64.15013236 0.54141983 64.20353857 -5.25 63.1875 C-5.29254356 61.18795254 -5.29080783 59.18708364 -5.25 57.1875 C-4.25 56.1875 -4.25 56.1875 -0.75 55.75 C0.405 55.564375 1.56 55.37875 2.75 55.1875 C3.91992112 52.84765775 3.93426625 51.2957438 4.03125 48.6875 C4.08732422 47.3571875 4.08732422 47.3571875 4.14453125 46 C4.17933594 45.071875 4.21414062 44.14375 4.25 43.1875 C4.31875603 41.35400591 4.39148038 39.52065503 4.46875 37.6875 C4.51418945 36.46546875 4.51418945 36.46546875 4.56054688 35.21875 C4.75 33.1875 4.75 33.1875 5.75 31.1875 C5.42 30.5275 5.09 29.8675 4.75 29.1875 C4.62311796 27.8485465 4.54830001 26.50437525 4.50390625 25.16015625 C4.47103516 24.36802734 4.43816406 23.57589844 4.40429688 22.75976562 C4.34324671 21.09062803 4.28593653 19.42134931 4.23242188 17.75195312 C4.18118164 16.56182617 4.18118164 16.56182617 4.12890625 15.34765625 C4.1038501 14.62199463 4.07879395 13.89633301 4.05297852 13.14868164 C3.84171499 10.86881318 3.84171499 10.86881318 1.75 8.1875 C-1.81769552 7.45143501 -1.81769552 7.45143501 -5.25 7.1875 C-5.29254356 5.18795254 -5.29080783 3.18708364 -5.25 1.1875 C-3.68904523 -0.37345477 -2.15999105 0.01788072 0 0 Z " fill="#EE8B36" transform="translate(97.25,94.8125)"/>
<path d="M0 0 C-1.65 0.33 -3.3 0.66 -5 1 C-5.09210948 7.62164818 -5.09268403 14.08815295 -4.22265625 20.65625 C-3.76963559 25.4248885 -3.94500486 30.21542312 -4 35 C-8.29 35 -12.58 35 -17 35 C-16.34 23.45 -15.68 11.9 -15 0 C-22.09760981 1.74674621 -22.09760981 1.74674621 -28.375 4.625 C-32.80924855 7 -32.80924855 7 -35 7 C-34 4 -34 4 -31.6875 2.3125 C-29 1 -29 1 -25 1 C-25 0.34 -25 -0.32 -25 -1 C-6.38385085 -3.92018026 -6.38385085 -3.92018026 0 0 Z " fill="#DCBEA3" transform="translate(74,61)"/>
<path d="M0 0 C0.74121094 -0.00386719 1.48242188 -0.00773437 2.24609375 -0.01171875 C7.7483402 -0.0016598 7.7483402 -0.0016598 8.875 1.125 C8.97360131 2.52848735 9.00578937 3.93680477 9.0078125 5.34375 C9.00974609 6.61798828 9.00974609 6.61798828 9.01171875 7.91796875 C9.00785156 8.81128906 9.00398438 9.70460938 9 10.625 C9.00580078 11.96498047 9.00580078 11.96498047 9.01171875 13.33203125 C9.01042969 14.18152344 9.00914063 15.03101562 9.0078125 15.90625 C9.00668457 16.69064453 9.00555664 17.47503906 9.00439453 18.28320312 C8.875 20.125 8.875 20.125 7.875 21.125 C6.54456375 21.2233721 5.20906656 21.25578592 3.875 21.2578125 C3.070625 21.25910156 2.26625 21.26039062 1.4375 21.26171875 C0.591875 21.25785156 -0.25375 21.25398438 -1.125 21.25 C-1.970625 21.25386719 -2.81625 21.25773437 -3.6875 21.26171875 C-4.491875 21.26042969 -5.29625 21.25914063 -6.125 21.2578125 C-6.8675 21.25668457 -7.61 21.25555664 -8.375 21.25439453 C-10.125 21.125 -10.125 21.125 -11.125 20.125 C-11.21151611 18.70929877 -11.23204904 17.289405 -11.22265625 15.87109375 C-11.21943359 15.01708984 -11.21621094 14.16308594 -11.21289062 13.28320312 C-11.20451172 12.38537109 -11.19613281 11.48753906 -11.1875 10.5625 C-11.18298828 9.66080078 -11.17847656 8.75910156 -11.17382812 7.83007812 C-11.16200225 5.59498686 -11.1455222 3.36002563 -11.125 1.125 C-7.38476998 -0.12174334 -3.8933914 -0.02052755 0 0 Z " fill="#68A3A2" transform="translate(51.125,100.875)"/>
<path d="M0 0 C6.6 0 13.2 0 20 0 C20 6.6 20 13.2 20 20 C13.4 20 6.8 20 0 20 C-1.20314837 17.59370327 -1.13330714 16.0582063 -1.125 13.375 C-1.12757812 12.55773437 -1.13015625 11.74046875 -1.1328125 10.8984375 C-0.96562799 7.2498815 -0.45302253 3.6241802 0 0 Z " fill="#67A09F" transform="translate(67,129)"/>
<path d="M0 0 C6.6 0 13.2 0 20 0 C20 6.6 20 13.2 20 20 C13.4 20 6.8 20 0 20 C0 13.4 0 6.8 0 0 Z " fill="#F2852A" transform="translate(40,129)"/>
<path d="M0 0 C6.6 0 13.2 0 20 0 C20 6.27 20 12.54 20 19 C16.80874596 20.06375135 14.47529029 20.13335484 11.125 20.125 C9.58199219 20.12886719 9.58199219 20.12886719 8.0078125 20.1328125 C5 20 5 20 0 19 C0 12.73 0 6.46 0 0 Z " fill="#EC8832" transform="translate(67,102)"/>
<path d="M0 0 C4.84623566 0.05393267 8.23510929 0.67260929 11.75 4.1875 C12.16064453 6.43408203 12.16064453 6.43408203 12.3828125 9.1953125 C12.50849609 10.67451172 12.50849609 10.67451172 12.63671875 12.18359375 C12.71535156 13.21613281 12.79398438 14.24867187 12.875 15.3125 C12.96136719 16.35277344 13.04773438 17.39304687 13.13671875 18.46484375 C13.34922379 21.03851589 13.55329156 23.61258017 13.75 26.1875 C15.73 26.8475 17.71 27.5075 19.75 28.1875 C19.75 30.4975 19.75 32.8075 19.75 35.1875 C18.780625 35.455625 17.81125 35.72375 16.8125 36 C15.2965625 36.5878125 15.2965625 36.5878125 13.75 37.1875 C12.69013525 40.36709425 12.6817458 42.54334193 12.75 45.875 C12.79752527 50.76416188 12.49273885 55.35969745 11.75 60.1875 C11.09 60.1875 10.43 60.1875 9.75 60.1875 C9.75 60.8475 9.75 61.5075 9.75 62.1875 C4.2084498 64.15013236 0.54141983 64.20353857 -5.25 63.1875 C-5.29254356 61.18795254 -5.29080783 59.18708364 -5.25 57.1875 C-4.25 56.1875 -4.25 56.1875 -0.8125 55.75 C2.79058997 55.53902449 2.79058997 55.53902449 4.75 53.1875 C4.42 54.5075 4.09 55.8275 3.75 57.1875 C1.44 57.1875 -0.87 57.1875 -3.25 57.1875 C-3.25 58.8375 -3.25 60.4875 -3.25 62.1875 C0.05 62.1875 3.35 62.1875 6.75 62.1875 C6.75 61.5275 6.75 60.8675 6.75 60.1875 C7.74 59.6925 7.74 59.6925 8.75 59.1875 C9.75000007 56.29603929 9.89451811 53.53346424 9.9609375 50.4921875 C9.98929688 49.61175781 10.01765625 48.73132813 10.046875 47.82421875 C10.09917341 45.97547006 10.14337916 44.12647558 10.1796875 42.27734375 C10.210625 41.39949219 10.2415625 40.52164063 10.2734375 39.6171875 C10.29325684 38.81522949 10.31307617 38.01327148 10.33349609 37.18701172 C10.75 35.1875 10.75 35.1875 13.75 33.1875 C14.74 33.1875 15.73 33.1875 16.75 33.1875 C16.75 31.8675 16.75 30.5475 16.75 29.1875 C15.945625 29.06375 15.14125 28.94 14.3125 28.8125 C13.466875 28.60625 12.62125 28.4 11.75 28.1875 C10.14088229 24.96926458 10.40983045 21.41790821 10.25 17.875 C10.18051505 16.35791185 10.1076807 14.84097284 10.03125 13.32421875 C10.00095703 12.65092529 9.97066406 11.97763184 9.93945312 11.28393555 C9.72358449 8.89519337 9.2203799 6.53939949 8.75 4.1875 C5.12 3.5275 1.49 2.8675 -2.25 2.1875 C-2.25 3.1775 -2.25 4.1675 -2.25 5.1875 C-0.5484375 5.6515625 -0.5484375 5.6515625 1.1875 6.125 C4.75 7.1875 4.75 7.1875 5.75 8.1875 C5.96468429 10.69215004 6.12712805 13.17804426 6.25 15.6875 C6.49284618 20.28426771 6.77942792 24.81494755 7.4375 29.375 C7.74293858 33.10135062 7.52570146 34.94945617 5.75 38.1875 C5.42 38.1875 5.09 38.1875 4.75 38.1875 C4.625 33.4375 4.625 33.4375 5.75 31.1875 C5.42 30.5275 5.09 29.8675 4.75 29.1875 C4.62311796 27.8485465 4.54830001 26.50437525 4.50390625 25.16015625 C4.47103516 24.36802734 4.43816406 23.57589844 4.40429688 22.75976562 C4.34324671 21.09062803 4.28593653 19.42134931 4.23242188 17.75195312 C4.18118164 16.56182617 4.18118164 16.56182617 4.12890625 15.34765625 C4.1038501 14.62199463 4.07879395 13.89633301 4.05297852 13.14868164 C3.84171499 10.86881318 3.84171499 10.86881318 1.75 8.1875 C-1.81769552 7.45143501 -1.81769552 7.45143501 -5.25 7.1875 C-5.29254356 5.18795254 -5.29080783 3.18708364 -5.25 1.1875 C-3.68904523 -0.37345477 -2.15999105 0.01788072 0 0 Z " fill="#E5D4C5" transform="translate(97.25,94.8125)"/>
<path d="M0 0 C0 1.32 0 2.64 0 4 C-2.64 4.66 -5.28 5.32 -8 6 C-8 12.6 -8 19.2 -8 26 C-9.98 26.99 -9.98 26.99 -12 28 C-12 29.32 -12 30.64 -12 32 C-14.31 31.67 -16.62 31.34 -19 31 C-19 29.68 -19 28.36 -19 27 C-18.360625 26.71125 -17.72125 26.4225 -17.0625 26.125 C-14.84793921 25.17176549 -14.84793921 25.17176549 -14 23 C-13.90710632 21.51388119 -13.86827957 20.02414888 -13.859375 18.53515625 C-13.84003906 17.65279297 -13.82070313 16.77042969 -13.80078125 15.86132812 C-13.7670019 13.99956614 -13.74870351 12.13745719 -13.74609375 10.27539062 C-13.67637008 7.75983414 -13.55614844 5.45491205 -13 3 C-8.94277139 -0.77190035 -5.23155991 -0.26601152 0 0 Z " fill="#EC8B37" transform="translate(32,97)"/>
<path d="M0 0 C1.65 0 3.3 0 5 0 C5.76776475 4.0752634 6.11902034 7.91005447 6.09765625 12.0546875 C6.09443359 13.16328125 6.09121094 14.271875 6.08789062 15.4140625 C6.07951172 16.55617188 6.07113281 17.69828125 6.0625 18.875 C6.05798828 20.0403125 6.05347656 21.205625 6.04882812 22.40625 C6.03708781 25.27088645 6.0206657 28.13541633 6 31 C3.69 31 1.38 31 -1 31 C-1.19148936 9.27659574 -1.19148936 9.27659574 0 0 Z " fill="#EF872C" transform="translate(61,63)"/>
<path d="M0 0 C0.70342529 0.00467285 1.40685059 0.0093457 2.1315918 0.01416016 C9.43601234 0.22124641 14.25416399 2.48194266 20.1875 6.4375 C20.1875 7.0975 20.1875 7.7575 20.1875 8.4375 C20.8475 8.4375 21.5075 8.4375 22.1875 8.4375 C23.87890625 10.73828125 23.87890625 10.73828125 25.75 13.75 C26.68005859 15.22919922 26.68005859 15.22919922 27.62890625 16.73828125 C29.1875 19.4375 29.1875 19.4375 30.1875 22.4375 C30.52523437 21.79941406 30.86296875 21.16132812 31.2109375 20.50390625 C31.65695313 19.67761719 32.10296875 18.85132812 32.5625 18 C33.00335938 17.17628906 33.44421875 16.35257813 33.8984375 15.50390625 C35.1875 13.4375 35.1875 13.4375 37.1875 12.4375 C35.40406051 18.04259554 35.40406051 18.04259554 34.125 20.375 C32.79079743 23.31024566 32.55471785 26.25494533 32.1875 29.4375 C31.1975 29.4375 30.2075 29.4375 29.1875 29.4375 C27.06464085 25.71825077 26.88034162 22.6688935 26.7265625 18.4609375 C26.39329043 16.26558737 26.39329043 16.26558737 24.31640625 15.31640625 C23.61386719 15.02636719 22.91132812 14.73632812 22.1875 14.4375 C17.40972222 10.10416667 17.40972222 10.10416667 16.1875 6.4375 C15.1975 6.1075 14.2075 5.7775 13.1875 5.4375 C13.1875 4.7775 13.1875 4.1175 13.1875 3.4375 C9.91668529 3.40847571 6.6459037 3.39069316 3.375 3.375 C1.9818457 3.36243164 1.9818457 3.36243164 0.56054688 3.34960938 C-0.33212891 3.34638672 -1.22480469 3.34316406 -2.14453125 3.33984375 C-2.96671143 3.33460693 -3.7888916 3.32937012 -4.63598633 3.32397461 C-6.99422596 3.35008476 -6.99422596 3.35008476 -9.8125 4.4375 C-6.84089935 5.99405272 -4.01954377 7.37279882 -0.8125 8.375 C2.6116423 9.58771707 5.24171475 11.33336768 8.1875 13.4375 C4.41986987 13.4375 1.32191279 12.22964946 -2.1875 11 C-6.35769516 9.54613313 -10.44355747 8.17127992 -14.8125 7.4375 C-14.6875 5.625 -14.6875 5.625 -13.8125 3.4375 C-9.26359077 0.58491157 -5.26831907 -0.07648875 0 0 Z " fill="#C8D6D6" transform="translate(32.8125,11.5625)"/>
<path d="M0 0 C6.6 0 13.2 0 20 0 C20 6.6 20 13.2 20 20 C13.4 20 6.8 20 0 20 C0 13.4 0 6.8 0 0 Z M2 2 C2 7.28 2 12.56 2 18 C6.95 18 11.9 18 17 18 C17 13.05 17 8.1 17 3 C13.23139506 2.24627901 10.43331415 1.88755581 6.6875 1.9375 C5.140625 1.958125 3.59375 1.97875 2 2 Z " fill="#E1C4AB" transform="translate(40,129)"/>
<path d="M0 0 C0.78761719 -0.00257812 1.57523438 -0.00515625 2.38671875 -0.0078125 C4.3125 0.125 4.3125 0.125 5.3125 1.125 C5.35330783 3.12458364 5.35504356 5.12545254 5.3125 7.125 C3.3325 7.455 1.3525 7.785 -0.6875 8.125 C-0.6875 7.465 -0.6875 6.805 -0.6875 6.125 C0.3025 6.125 1.2925 6.125 2.3125 6.125 C2.3125 4.805 2.3125 3.485 2.3125 2.125 C0.49917846 2.43269707 -1.31314345 2.74629064 -3.125 3.0625 C-4.13433594 3.23652344 -5.14367187 3.41054687 -6.18359375 3.58984375 C-8.6162438 3.87251097 -8.6162438 3.87251097 -9.6875 5.125 C-9.80797734 6.56569259 -9.86698799 8.01165211 -9.8984375 9.45703125 C-9.92679688 10.33810547 -9.95515625 11.21917969 -9.984375 12.12695312 C-10.03612722 13.98873937 -10.08049501 15.8507467 -10.1171875 17.71289062 C-10.16359375 19.04030273 -10.16359375 19.04030273 -10.2109375 20.39453125 C-10.23075684 21.20510986 -10.25057617 22.01568848 -10.27099609 22.85083008 C-10.78599503 25.66279671 -11.70275676 27.08442672 -13.6875 29.125 C-14.6775 29.125 -15.6675 29.125 -16.6875 29.125 C-16.6875 30.445 -16.6875 31.765 -16.6875 33.125 C-16.06875 33.228125 -15.45 33.33125 -14.8125 33.4375 C-12.6875 34.125 -12.6875 34.125 -10.6875 37.125 C-10.36865234 39.5769043 -10.36865234 39.5769043 -10.2734375 42.44921875 C-10.23476563 43.47724609 -10.19609375 44.50527344 -10.15625 45.56445312 C-10.1253125 46.63630859 -10.094375 47.70816406 -10.0625 48.8125 C-10.02382813 49.89595703 -9.98515625 50.97941406 -9.9453125 52.09570312 C-9.85099491 54.77196467 -9.76539995 57.44821843 -9.6875 60.125 C-10.3475 60.125 -11.0075 60.125 -11.6875 60.125 C-12.25073179 53.43662247 -12.6875 46.83883251 -12.6875 40.125 C-12.97270405 38.44942621 -13.28705696 36.77682755 -13.6875 35.125 C-15.6675 35.125 -17.6475 35.125 -19.6875 35.125 C-19.6875 32.815 -19.6875 30.505 -19.6875 28.125 C-17.7075 27.465 -15.7275 26.805 -13.6875 26.125 C-12.40953664 20.86649502 -12.38515098 15.57209875 -12.2578125 10.1875 C-12.02410953 4.6370545 -12.02410953 4.6370545 -10.3984375 2.1640625 C-7.04229957 0.12586002 -3.86255767 -0.01276879 0 0 Z " fill="#DECDBE" transform="translate(29.6875,94.875)"/>
<path d="M0 0 C1.25050287 2.50100574 1.02993449 4.00343052 0.87890625 6.7890625 C0.83056641 7.73007813 0.78222656 8.67109375 0.73242188 9.640625 C0.67634766 10.62546875 0.62027344 11.6103125 0.5625 12.625 C0.51029297 13.61757812 0.45808594 14.61015625 0.40429688 15.6328125 C0.27441051 18.08884568 0.13943836 20.5444936 0 23 C2.48044315 19.27933528 2.44381173 16.13459526 2.625 11.8125 C2.68300781 10.68811523 2.68300781 10.68811523 2.7421875 9.54101562 C2.83628216 7.69440801 2.91922319 5.8472381 3 4 C3.33 4 3.66 4 4 4 C4.05413245 6.89608593 4.09373641 9.79115195 4.125 12.6875 C4.14175781 13.50412109 4.15851563 14.32074219 4.17578125 15.16210938 C4.2114802 19.57092929 4.07580814 22.98731576 2 27 C1.34 27 0.68 27 0 27 C0 27.66 0 28.32 0 29 C-3.3 29 -6.6 29 -10 29 C-10 27.35 -10 25.7 -10 24 C-6.535 23.505 -6.535 23.505 -3 23 C-2.95101562 21.75863281 -2.90203125 20.51726562 -2.8515625 19.23828125 C-2.77650201 17.59633306 -2.70095561 15.95440703 -2.625 14.3125 C-2.57859375 13.08756836 -2.57859375 13.08756836 -2.53125 11.83789062 C-2.32044076 7.49873367 -1.98261241 3.95716543 0 0 Z " fill="#DF9959" transform="translate(104,128)"/>
<path d="M0 0 C0.66 0.33 1.32 0.66 2 1 C1.2575 1.70125 0.515 2.4025 -0.25 3.125 C-2.92917309 5.92595368 -4.87239104 8.77427029 -7 12 C-8.31383612 13.35254952 -9.64430947 14.6894052 -11 16 C-9.99324219 15.6390625 -8.98648437 15.278125 -7.94921875 14.90625 C0.17039759 12.16553775 7.64548402 10.52221747 16.25 10.5625 C17.44556519 10.56636719 17.44556519 10.56636719 18.6652832 10.5703125 C22.8593639 10.6777268 26.17555499 11.09542638 30 13 C26.98968256 13.93423645 26.13349732 14.04449911 23 13 C11.29847462 11.9376047 0.2595766 13.76359066 -10.26953125 19.1640625 C-12 20 -12 20 -15 20 C-13.27421108 11.88512016 -8.70709548 5.73044518 -2 1 C-1.34 0.67 -0.68 0.34 0 0 Z " fill="#DDE3E3" transform="translate(18,36)"/>
<path d="M0 0 C0.66 0.33 1.32 0.66 2 1 C1.01 2.485 1.01 2.485 0 4 C-0.3474956 5.97655526 -0.3474956 5.97655526 -0.37890625 8.125 C-0.41306641 8.91390625 -0.44722656 9.7028125 -0.48242188 10.515625 C-0.50884766 11.33546875 -0.53527344 12.1553125 -0.5625 13 C-0.62254852 14.62514303 -0.68620449 16.2501578 -0.75390625 17.875 C-0.77783447 18.59429687 -0.8017627 19.31359375 -0.82641602 20.0546875 C-1 22 -1 22 -2 25 C-1.67 25.33 -1.34 25.66 -1 26 C-0.85518713 27.54815405 -0.77297155 29.10228354 -0.71875 30.65625 C-0.68136719 31.59597656 -0.64398437 32.53570312 -0.60546875 33.50390625 C-0.53515625 35.50130208 -0.46484375 37.49869792 -0.39453125 39.49609375 C-0.35714844 40.43582031 -0.31976562 41.37554687 -0.28125 42.34375 C-0.25095703 43.21193359 -0.22066406 44.08011719 -0.18945312 44.97460938 C-0.21778499 46.9949413 -0.21778499 46.9949413 1 48 C2.7325 48.2475 2.7325 48.2475 4.5 48.5 C8 49 8 49 9 50 C9.125 53 9.125 53 9 56 C8.505 56.495 8.505 56.495 8 57 C6.01793001 56.93577976 4.03797746 56.79882322 2.0625 56.625 C0.44021484 56.48964844 0.44021484 56.48964844 -1.21484375 56.3515625 C-4 56 -4 56 -6 55 C-5.67 54.34 -5.34 53.68 -5 53 C-4.34 53.33 -3.68 53.66 -3 54 C-1.46331135 54.22467831 0.07968054 54.40796805 1.625 54.5625 C2.44226562 54.64628906 3.25953125 54.73007813 4.1015625 54.81640625 C5.04128906 54.90728516 5.04128906 54.90728516 6 55 C6 53.68 6 52.36 6 51 C4.576875 51.0928125 4.576875 51.0928125 3.125 51.1875 C2.09375 51.125625 1.0625 51.06375 0 51 C-2.10390649 47.84414026 -2.26961963 46.91906512 -2.37890625 43.2890625 C-2.41306641 42.37382812 -2.44722656 41.45859375 -2.48242188 40.515625 C-2.50884766 39.56171875 -2.53527344 38.6078125 -2.5625 37.625 C-2.62278449 35.74207159 -2.68647859 33.85924865 -2.75390625 31.9765625 C-2.77783447 31.14205566 -2.8017627 30.30754883 -2.82641602 29.44775391 C-2.9489636 26.93330092 -2.9489636 26.93330092 -3.57788086 24.25146484 C-3.71718018 23.50848145 -3.85647949 22.76549805 -4 22 C-3.67 21.67 -3.34 21.34 -3 21 C-2.84344973 19.51361008 -2.74933057 18.02050873 -2.68359375 16.52734375 C-2.64169922 15.62822266 -2.59980469 14.72910156 -2.55664062 13.80273438 C-2.51732422 12.85720703 -2.47800781 11.91167969 -2.4375 10.9375 C-2.39431641 9.98810547 -2.35113281 9.03871094 -2.30664062 8.06054688 C-2.20020724 5.70718647 -2.09818992 3.35371646 -2 1 C-1.34 0.67 -0.68 0.34 0 0 Z " fill="#E2D2C5" transform="translate(26,102)"/>
<path d="M0 0 C0.70833984 -0.00128906 1.41667969 -0.00257812 2.14648438 -0.00390625 C7.87257335 0.11198516 11.47294251 1.23196167 16.1875 4.375 C15.8575 5.365 15.5275 6.355 15.1875 7.375 C12.859375 8.2890625 12.859375 8.2890625 9.9375 9 C8.98359375 9.23976563 8.0296875 9.47953125 7.046875 9.7265625 C4.43385118 10.31913347 1.81799547 10.86618153 -0.8125 11.375 C-0.1525 10.385 0.5075 9.395 1.1875 8.375 C2.1775 8.375 3.1675 8.375 4.1875 8.375 C4.8475 6.395 5.5075 4.415 6.1875 2.375 C-0.4125 3.035 -7.0125 3.695 -13.8125 4.375 C-12.8125 2.375 -12.8125 2.375 -10.73828125 1.2734375 C-7.13490371 0.16692637 -3.73598822 -0.00698969 0 0 Z " fill="#C8D5D4" transform="translate(92.8125,11.625)"/>
<path d="M0 0 C6.6 0 13.2 0 20 0 C20 6.27 20 12.54 20 19 C16.80874596 20.06375135 14.47529029 20.13335484 11.125 20.125 C9.58199219 20.12886719 9.58199219 20.12886719 8.0078125 20.1328125 C5 20 5 20 0 19 C0 12.73 0 6.46 0 0 Z M1 1 C1 6.61 1 12.22 1 18 C6.61 18 12.22 18 18 18 C18 12.39 18 6.78 18 1 C12.39 1 6.78 1 1 1 Z " fill="#DACFC5" transform="translate(67,102)"/>
<path d="M0 0 C0.66 0.33 1.32 0.66 2 1 C1.01 2.98 0.02 4.96 -1 7 C-1.66 7 -2.32 7 -3 7 C-3.433125 8.0828125 -3.433125 8.0828125 -3.875 9.1875 C-4.55976249 10.89940622 -5.27175827 12.60116224 -6.03125 14.28125 C-7.12703283 17.3565115 -7.41054294 20.0599012 -7.625 23.3125 C-7.69976563 24.38113281 -7.77453125 25.44976562 -7.8515625 26.55078125 C-7.90054687 27.35902344 -7.94953125 28.16726562 -8 29 C-5.65752556 28.12150806 -5.65752556 28.12150806 -5 25.0625 C-2.69194964 19.26216402 2.33479297 14.97702898 7 11 C7.66 11 8.32 11 9 11 C9 13 9 13 7.625 14.625 C6 16 6 16 4 16 C4 16.66 4 17.32 4 18 C3.34 18 2.68 18 2 18 C1.71898437 18.57234375 1.43796875 19.1446875 1.1484375 19.734375 C0.02801218 21.94473787 -1.1292948 24.10770444 -2.375 26.25 C-2.77460938 26.95640625 -3.17421875 27.6628125 -3.5859375 28.390625 C-4.28589844 29.18726563 -4.28589844 29.18726563 -5 30 C-6.32 30 -7.64 30 -9 30 C-9.77832134 19.44942179 -9.08070675 12.05448304 -3 3 C-1.30078125 1.171875 -1.30078125 1.171875 0 0 Z " fill="#D7DFDF" transform="translate(27,59)"/>
<path d="M0 0 C-3.54503124 1.18167708 -4.47280284 0.70722373 -7.9375 -0.4375 C-16.82715796 -3.00091989 -25.19959922 -2.70781562 -34 0 C-28.555 1.485 -28.555 1.485 -23 3 C-23 3.33 -23 3.66 -23 4 C-30.26 4 -37.52 4 -45 4 C-45 3.34 -45 2.68 -45 2 C-30.1476938 -4.79887586 -15.26216964 -7.53023348 0 0 Z " fill="#D5DFDE" transform="translate(114,51)"/>
<path d="M0 0 C-1.65 0.33 -3.3 0.66 -5 1 C-5.33 3.31 -5.66 5.62 -6 8 C-6.33 8 -6.66 8 -7 8 C-7 5.69 -7 3.38 -7 1 C-9.31 1 -11.62 1 -14 1 C-14 4.3 -14 7.6 -14 11 C-14.33 11 -14.66 11 -15 11 C-15 7.37 -15 3.74 -15 0 C-20.86271829 1.19425743 -25.62406549 3.15158926 -30.8984375 5.9765625 C-33 7 -33 7 -35 7 C-34 4 -34 4 -31.6875 2.3125 C-29 1 -29 1 -25 1 C-25 0.34 -25 -0.32 -25 -1 C-6.38385085 -3.92018026 -6.38385085 -3.92018026 0 0 Z " fill="#E8E7E4" transform="translate(74,61)"/>
<path d="M0 0 C0.79148437 -0.02578125 1.58296875 -0.0515625 2.3984375 -0.078125 C4.625 0.25 4.625 0.25 7.625 3.25 C4.325 2.92 1.025 2.59 -2.375 2.25 C-2.375 3.24 -2.375 4.23 -2.375 5.25 C-0.6734375 5.7140625 -0.6734375 5.7140625 1.0625 6.1875 C4.625 7.25 4.625 7.25 5.625 8.25 C5.83968429 10.75465004 6.00212805 13.24054426 6.125 15.75 C6.36784618 20.34676771 6.65442792 24.87744755 7.3125 29.4375 C7.61793858 33.16385062 7.40070146 35.01195617 5.625 38.25 C5.295 38.25 4.965 38.25 4.625 38.25 C4.5 33.5 4.5 33.5 5.625 31.25 C5.295 30.59 4.965 29.93 4.625 29.25 C4.49811796 27.9110465 4.42330001 26.56687525 4.37890625 25.22265625 C4.34603516 24.43052734 4.31316406 23.63839844 4.27929688 22.82226562 C4.21824671 21.15312803 4.16093653 19.48384931 4.10742188 17.81445312 C4.05618164 16.62432617 4.05618164 16.62432617 4.00390625 15.41015625 C3.9788501 14.68449463 3.95379395 13.95883301 3.92797852 13.21118164 C3.71671499 10.93131318 3.71671499 10.93131318 1.625 8.25 C-1.94269552 7.51393501 -1.94269552 7.51393501 -5.375 7.25 C-5.41754356 5.25045254 -5.41580783 3.24958364 -5.375 1.25 C-3.79577594 -0.32922406 -2.18056126 0.042341 0 0 Z " fill="#DFC7B1" transform="translate(97.375,94.75)"/>
<path d="M0 0 C-0.99 0.7734375 -0.99 0.7734375 -2 1.5625 C-10.49596717 8.37867803 -10.49596717 8.37867803 -17 17 C-16.401875 16.484375 -15.80375 15.96875 -15.1875 15.4375 C-14.1046875 14.7259375 -14.1046875 14.7259375 -13 14 C-12.01 14.33 -11.02 14.66 -10 15 C-11.28716647 16.00578589 -12.57988658 17.00446798 -13.875 18 C-14.59429687 18.556875 -15.31359375 19.11375 -16.0546875 19.6875 C-18 21 -18 21 -20 21 C-20.4021875 22.2065625 -20.4021875 22.2065625 -20.8125 23.4375 C-21.204375 24.283125 -21.59625 25.12875 -22 26 C-22.99 26.33 -23.98 26.66 -25 27 C-24.57742724 25.5164999 -24.13643678 24.03823576 -23.6875 22.5625 C-23.44386719 21.73878906 -23.20023437 20.91507813 -22.94921875 20.06640625 C-22.63597656 19.38449219 -22.32273437 18.70257813 -22 18 C-21.01 17.67 -20.02 17.34 -19 17 C-18.64321247 15.67275038 -18.31358352 14.33811594 -18 13 C-13.88342241 7.29576163 -7.69658408 -1.1318506 0 0 Z " fill="#CCD7D7" transform="translate(92,23)"/>
<path d="M0 0 C4.38889325 0.66498383 7.9811485 2.18757677 12 4 C12 4.66 12 5.32 12 6 C11.41621582 5.98428955 10.83243164 5.9685791 10.23095703 5.95239258 C7.52907405 5.88917972 4.82734741 5.85074077 2.125 5.8125 C1.2071875 5.78736328 0.289375 5.76222656 -0.65625 5.73632812 C-7.26303594 5.66653813 -12.79132998 6.75465195 -19 9 C-19 8.34 -19 7.68 -19 7 C-12.77470211 3.90238801 -6.86476118 2.08918967 0 1 C0 0.67 0 0.34 0 0 Z " fill="#97BABA" transform="translate(48,50)"/>
<path d="M0 0 C2.265625 0.1640625 2.265625 0.1640625 5 1 C6.984375 3.3984375 6.984375 3.3984375 8.75 6.375 C9.34296875 7.35210938 9.9359375 8.32921875 10.546875 9.3359375 C12 12 12 12 13 15 C13.33773437 14.36191406 13.67546875 13.72382812 14.0234375 13.06640625 C14.46945313 12.24011719 14.91546875 11.41382813 15.375 10.5625 C16.03628906 9.32693359 16.03628906 9.32693359 16.7109375 8.06640625 C18 6 18 6 20 5 C18.21656051 10.60509554 18.21656051 10.60509554 16.9375 12.9375 C15.60329743 15.87274566 15.36721785 18.81744533 15 22 C14.01 22 13.02 22 12 22 C9.87714085 18.28075077 9.69284162 15.2313935 9.5390625 11.0234375 C9.20613099 8.82876546 9.20613099 8.82876546 7.1328125 7.8828125 C6.42898437 7.59148438 5.72515625 7.30015625 5 7 C2.25 4.5 2.25 4.5 0 2 C0 1.34 0 0.68 0 0 Z " fill="#BBCECD" transform="translate(50,19)"/>
<path d="M0 0 C6.95907101 0.84352376 11.48610449 4.03267845 15.8125 9.3125 C18.64210484 13.1445209 20.10777417 16.34059845 21 21 C16.78087253 20.5205537 14.20336822 19.83374881 11 17 C12.98 17.33 14.96 17.66 17 18 C12.75333474 9.99666932 8.8227654 3.99974023 0 1 C0 0.67 0 0.34 0 0 Z " fill="#CEDBDA" transform="translate(103,35)"/>
<path d="M0 0 C5.65771384 1.44732215 8.93304729 3.81016987 12.12890625 8.7421875 C13.88265435 11.75785767 15.49049122 14.85519003 17 18 C17.66 18 18.32 18 19 18 C18.67 12.72 18.34 7.44 18 2 C20 4 20 4 20.1953125 7.6953125 C20.182009 9.17200108 20.15814835 10.64862358 20.125 12.125 C20.11597656 12.87910156 20.10695313 13.63320312 20.09765625 14.41015625 C20.0740687 16.27357254 20.03819719 18.13682593 20 20 C17.14820529 19.64037102 16.10604616 19.11014144 14.078125 17.00390625 C13.47484375 16.19824219 12.8715625 15.39257812 12.25 14.5625 C11.32960938 13.35787109 11.32960938 13.35787109 10.390625 12.12890625 C9 10 9 10 9 8 C8.34 8 7.68 8 7 8 C7 7.34 7 6.68 7 6 C6.401875 5.7525 5.80375 5.505 5.1875 5.25 C2.71352479 3.83629988 1.56629745 2.34944617 0 0 Z " fill="#E2E6E6" transform="translate(89,69)"/>
<path d="M0 0 C0 1.32 0 2.64 0 4 C-2.31 4.66 -4.62 5.32 -7 6 C-6.67 4.68 -6.34 3.36 -6 2 C-7.32 2 -8.64 2 -10 2 C-10 2.66 -10 3.32 -10 4 C-10.66 4 -11.32 4 -12 4 C-11.98952637 4.59014893 -11.97905273 5.18029785 -11.96826172 5.78833008 C-11.92667956 8.46301004 -11.9006671 11.13762197 -11.875 13.8125 C-11.85824219 14.74126953 -11.84148438 15.67003906 -11.82421875 16.62695312 C-11.81777344 17.51962891 -11.81132812 18.41230469 -11.8046875 19.33203125 C-11.79421387 20.15421143 -11.78374023 20.9763916 -11.77294922 21.82348633 C-12 24 -12 24 -14 27 C-14.66 26.67 -15.32 26.34 -16 26 C-15.01 24.515 -15.01 24.515 -14 23 C-13.7149751 20.82509325 -13.7149751 20.82509325 -13.76171875 18.4375 C-13.74560547 17.55835937 -13.72949219 16.67921875 -13.71289062 15.7734375 C-13.69596418 13.92454931 -13.69075522 12.07551671 -13.69726562 10.2265625 C-13.64051946 7.72973111 -13.53798732 5.43946949 -13 3 C-8.94297974 -0.77121643 -5.23040453 -0.26595277 0 0 Z " fill="#E5944B" transform="translate(32,97)"/>
<path d="M0 0 C0.66 0.33 1.32 0.66 2 1 C1.93994146 3.91884528 1.85291384 6.83261639 1.75 9.75 C1.73582031 10.575 1.72164063 11.4 1.70703125 12.25 C1.67480469 13.04921875 1.64257812 13.8484375 1.609375 14.671875 C1.58842773 15.4050293 1.56748047 16.13818359 1.54589844 16.89355469 C1 19 1 19 -3 23 C-2.67 15.74 -2.34 8.48 -2 1 C-1.34 0.67 -0.68 0.34 0 0 Z " fill="#F2862B" transform="translate(106,129)"/>
<path d="M0 0 C3.22404332 0.31454081 4.72016619 0.74169187 7.1328125 2.96875 C11.41725121 8.41250742 14.42638028 13.21376494 16 20 C14.66144944 19.21718695 13.32926356 18.42348123 12 17.625 C11.2575 17.18414062 10.515 16.74328125 9.75 16.2890625 C9.1725 15.86367188 8.595 15.43828125 8 15 C8 14.34 8 13.68 8 13 C8.99 13 9.98 13 11 13 C7.61227103 8.30840284 4.21814817 3.9700218 0 0 Z " fill="#C0D1D0" transform="translate(41,26)"/>
<path d="M0 0 C1.32 0 2.64 0 4 0 C4.05394705 2.60444348 4.09364469 5.20776998 4.125 7.8125 C4.14175781 8.55048828 4.15851562 9.28847656 4.17578125 10.04882812 C4.21074628 13.91246426 4.19397555 15.70903668 2 19 C0.48578999 17.48578999 0.78690144 16.07527232 0.68359375 13.96484375 C0.64169922 13.15595703 0.59980469 12.34707031 0.55664062 11.51367188 C0.51732422 10.66353516 0.47800781 9.81339844 0.4375 8.9375 C0.39431641 8.08349609 0.35113281 7.22949219 0.30664062 6.34960938 C0.20023298 4.23327963 0.09958269 2.11666187 0 0 Z " fill="#F38629" transform="translate(19,130)"/>
<path d="M0 0 C0.33 0 0.66 0 1 0 C1 3.63 1 7.26 1 11 C0.34 11 -0.32 11 -1 11 C-1 12.32 -1 13.64 -1 15 C-3.31 14.67 -5.62 14.34 -8 14 C-8 12.68 -8 11.36 -8 10 C-6.35 9.67 -4.7 9.34 -3 9 C-2.01 6.03 -1.02 3.06 0 0 Z " fill="#F1872D" transform="translate(21,114)"/>
<path d="M0 0 C2.31 0.66 4.62 1.32 7 2 C6.67 3.32 6.34 4.64 6 6 C1.67940177 7.09845718 -2.61667943 8.17812739 -7 9 C-6.34 8.01 -5.68 7.02 -5 6 C-4.01 6 -3.02 6 -2 6 C-1.34 4.02 -0.68 2.04 0 0 Z " fill="#8EB8B6" transform="translate(99,14)"/>
<path d="M0 0 C2.43994062 1.80343437 2.98738042 2.94607999 3.6875 5.9375 C4.26145185 11.26377316 4.07903936 16.65166994 4 22 C3.34 22 2.68 22 2 22 C0.68 19.69 -0.64 17.38 -2 15 C-1.34 15 -0.68 15 0 15 C0.33 15.66 0.66 16.32 1 17 C1.12036664 11.22240116 0.8320582 5.72040011 0 0 Z " fill="#84ADAC" transform="translate(104,65)"/>
<path d="M0 0 C0.66 0.33 1.32 0.66 2 1 C1.2575 1.70125 0.515 2.4025 -0.25 3.125 C-3.07716396 5.9005629 -3.07716396 5.9005629 -5.0625 9.1875 C-6.94867293 11.92549296 -7.93415694 12.90505605 -11 14 C-10.56460604 9.06553512 -8.36703914 6.52008638 -5 3 C-2.3125 1.0625 -2.3125 1.0625 0 0 Z " fill="#A8C4C3" transform="translate(18,36)"/>
<path d="M0 0 C1.32 0.33 2.64 0.66 4 1 C4.06058594 2.05058594 4.12117188 3.10117188 4.18359375 4.18359375 C4.26787925 5.60158334 4.35253925 7.01955071 4.4375 8.4375 C4.48044189 9.1694458 4.52338379 9.9013916 4.56762695 10.65551758 C4.80577122 14.52890186 5.13833535 18.34334742 5.6875 22.1875 C5.99293858 25.91385062 5.77570146 27.76195617 4 31 C3.67 31 3.34 31 3 31 C2.875 26.25 2.875 26.25 4 24 C3.67 23.34 3.34 22.68 3 22 C2.7668011 18.21699557 2.60509239 14.44016991 2.48242188 10.65234375 C2.44826172 9.86214844 2.41410156 9.07195312 2.37890625 8.2578125 C2.34132202 7.17717529 2.34132202 7.17717529 2.30297852 6.07470703 C1.96029785 3.72813144 1.15752985 2.05570818 0 0 Z " fill="#D8C8BA" transform="translate(99,102)"/>
<path d="M0 0 C0.99 0.33 1.98 0.66 3 1 C1.71283353 2.00578589 0.42011342 3.00446798 -0.875 4 C-1.59429687 4.556875 -2.31359375 5.11375 -3.0546875 5.6875 C-5 7 -5 7 -7 7 C-7.4021875 8.2065625 -7.4021875 8.2065625 -7.8125 9.4375 C-8.4003125 10.7059375 -8.4003125 10.7059375 -9 12 C-9.99 12.33 -10.98 12.66 -12 13 C-11.55090939 11.51800098 -11.09043436 10.03944764 -10.625 8.5625 C-10.36976562 7.73878906 -10.11453125 6.91507813 -9.8515625 6.06640625 C-9 4 -9 4 -7 3 C-6.67 3.66 -6.34 4.32 -6 5 C-5.071875 4.154375 -4.14375 3.30875 -3.1875 2.4375 C-1.60546875 0.99609375 -1.60546875 0.99609375 0 0 Z " fill="#B7CECD" transform="translate(79,37)"/>
<path d="M0 0 C0.66 0.33 1.32 0.66 2 1 C1.01 2.98 0.02 4.96 -1 7 C-1.66 7 -2.32 7 -3 7 C-3.433125 8.0828125 -3.433125 8.0828125 -3.875 9.1875 C-4.91666667 11.79166667 -5.95833333 14.39583333 -7 17 C-8.00579304 14.35672682 -8.08377402 13.23258313 -7.109375 10.52734375 C-6.66078125 9.67269531 -6.2121875 8.81804687 -5.75 7.9375 C-5.31171875 7.08027344 -4.8734375 6.22304687 -4.421875 5.33984375 C-3.12125426 3.19953654 -1.85425788 1.66337839 0 0 Z " fill="#C2D0D0" transform="translate(27,59)"/>
<path d="M0 0 C4.19115285 0.58210456 5.37542083 1.28156562 9 4 C2.73 4 -3.54 4 -10 4 C-10 3.67 -10 3.34 -10 3 C-6.7 2.34 -3.4 1.68 0 1 C0 0.67 0 0.34 0 0 Z " fill="#DDE3E3" transform="translate(48,50)"/>
<path d="M0 0 C4.54805635 -0.17835515 7.8794254 0.00214565 12 2 C12 3.65 12 5.3 12 7 C11.67 5.68 11.34 4.36 11 3 C9.68 3 8.36 3 7 3 C6.67 3.66 6.34 4.32 6 5 C4.02 4.34 2.04 3.68 0 3 C0 2.01 0 1.02 0 0 Z " fill="#EC8E3C" transform="translate(95,97)"/>
<path d="M0 0 C1.32 0 2.64 0 4 0 C4 0.66 4 1.32 4 2 C2.04414675 3.00484204 0.08523763 4.00373805 -1.875 5 C-2.96554688 5.556875 -4.05609375 6.11375 -5.1796875 6.6875 C-8 8 -8 8 -10 8 C-9 5 -9 5 -6.6875 3.3125 C-4 2 -4 2 0 2 C0 1.34 0 0.68 0 0 Z " fill="#C2D2D2" transform="translate(49,60)"/>
<path d="M0 0 C0.33 0 0.66 0 1 0 C1.33 4.62 1.66 9.24 2 14 C1.01 14.33 0.02 14.66 -1 15 C-1.02703381 13.06257659 -1.04641125 11.12504521 -1.0625 9.1875 C-1.07410156 8.10855469 -1.08570312 7.02960938 -1.09765625 5.91796875 C-1 3 -1 3 0 0 Z " fill="#6F9E9E" transform="translate(20,73)"/>
<path d="M0 0 C4.1724106 0.51881113 6.25416821 1.71151274 9.3125 4.5625 C10.00988281 5.20316406 10.70726563 5.84382813 11.42578125 6.50390625 C11.94527344 6.99761719 12.46476562 7.49132813 13 8 C12.67 8.66 12.34 9.32 12 10 C11.0925 9.195625 10.185 8.39125 9.25 7.5625 C7.30015962 5.91617251 6.25172231 5.06293058 3.75 4.4375 C2 4 2 4 0.75 1.9375 C0.5025 1.298125 0.255 0.65875 0 0 Z " fill="#CAD8D8" transform="translate(91,55)"/>
<path d="M0 0 C4.99275057 1.27721526 7.57611908 3.17330957 11 7 C10.67 7.66 10.34 8.32 10 9 C9.01 8.67 8.02 8.34 7 8 C7 7.34 7 6.68 7 6 C6.401875 5.7525 5.80375 5.505 5.1875 5.25 C2.71352479 3.83629988 1.56629745 2.34944617 0 0 Z " fill="#BDCFCE" transform="translate(89,69)"/>
<path d="M0 0 C0.33 1.32 0.66 2.64 1 4 C1.99 4 2.98 4 4 4 C4 4.66 4 5.32 4 6 C1.35261084 7.4606285 0.10551666 8 -3 8 C-2.37240135 5.07120629 -1.41377341 2.63904371 0 0 Z " fill="#C8D9D7" transform="translate(6,48)"/>
<path d="M0 0 C0.66 0 1.32 0 2 0 C3.06775224 1.96466413 4.06553465 3.96855359 5 6 C4.67 6.66 4.34 7.32 4 8 C2.82780457 7.21654285 1.66236332 6.42297164 0.5 5.625 C-0.1496875 5.18414062 -0.799375 4.74328125 -1.46875 4.2890625 C-1.9740625 3.86367188 -2.479375 3.43828125 -3 3 C-3 2.34 -3 1.68 -3 1 C-2.01 1 -1.02 1 0 1 C0 0.67 0 0.34 0 0 Z " fill="#DCE3E3" transform="translate(52,38)"/>
<path d="M0 0 C0.66 0 1.32 0 2 0 C3.42944945 2.35438733 4.08661261 3.48032433 3.625 6.25 C3.41875 6.8275 3.2125 7.405 3 8 C3 7.01 3 6.02 3 5 C1.68 5 0.36 5 -1 5 C-1.33 5.66 -1.66 6.32 -2 7 C-2.66 5.68 -3.32 4.36 -4 3 C-2.68 3.33 -1.36 3.66 0 4 C0 2.68 0 1.36 0 0 Z " fill="#E5A161" transform="translate(20,125)"/>
<path d="M0 0 C0.99 0.33 1.98 0.66 3 1 C3.66 4.3 4.32 7.6 5 11 C3.35 10.01 1.7 9.02 0 8 C0.33 7.34 0.66 6.68 1 6 C0.70630173 4.65737935 0.3721042 3.32303717 0 2 C0 1.34 0 0.68 0 0 Z " fill="#80ADAC" transform="translate(54,38)"/>
<path d="M0 0 C2.64 0 5.28 0 8 0 C8 0.66 8 1.32 8 2 C5.36 2.33 2.72 2.66 0 3 C0 2.01 0 1.02 0 0 Z " fill="#F18828" transform="translate(95,153)"/>
<path d="M0 0 C0.99 0 1.98 0 3 0 C1.27137715 4.55727842 -1.81669715 5.90834857 -6 8 C-4.95125002 5.37812506 -4.35068687 4.20628639 -1.875 2.75 C-1.25625 2.5025 -0.6375 2.255 0 2 C0 1.34 0 0.68 0 0 Z " fill="#C5D2D1" transform="translate(76,16)"/>
<path d="M0 0 C2.64 0 5.28 0 8 0 C8 0.99 8 1.98 8 3 C3.44615385 3.36923077 3.44615385 3.36923077 1.1875 1.5 C0.5996875 0.7575 0.5996875 0.7575 0 0 Z " fill="#F18A2B" transform="translate(24,154)"/>
<path d="M0 0 C0.66 0.33 1.32 0.66 2 1 C1.01 2.98 0.02 4.96 -1 7 C-1.66 7 -2.32 7 -3 7 C-2.25 2.25 -2.25 2.25 0 0 Z " fill="#AFC8C6" transform="translate(27,59)"/>
<path d="M0 0 C0.99 0.33 1.98 0.66 3 1 C1.37660195 2.70884005 -0.29319053 4.37446717 -2 6 C-2.66 6 -3.32 6 -4 6 C-2.84826645 3.53199953 -1.95216435 1.95216435 0 0 Z " fill="#569491" transform="translate(74,20)"/>

    </symbol>
  </defs>
</svg>
